<mxfile host="Electron" modified="2024-07-14T21:34:50.696Z" agent="Mozilla/5.0 (Windows NT 10.0; Win64; x64) AppleWebKit/537.36 (KHTML, like Gecko) draw.io/24.6.4 Chrome/124.0.6367.207 Electron/30.0.6 Safari/537.36" etag="zYyc8KnkQ-_eVXObHzi0" version="24.6.4" type="device">
  <diagram name="Page-1" id="DBnN5L7_-RlaLcSAO-Sn">
    <mxGraphModel dx="1480" dy="877" grid="1" gridSize="10" guides="1" tooltips="1" connect="1" arrows="1" fold="1" page="1" pageScale="1" pageWidth="850" pageHeight="1100" math="0" shadow="0">
      <root>
        <mxCell id="0" />
        <mxCell id="1" parent="0" />
        <mxCell id="k7mkyXs0xZJJn667R8bs-1" value="&lt;font style=&quot;font-size: 15px;&quot;&gt;IUserModelType&lt;/font&gt;" style="rounded=1;whiteSpace=wrap;html=1;" vertex="1" parent="1">
          <mxGeometry x="40" y="90" width="140" height="50" as="geometry" />
        </mxCell>
        <mxCell id="k7mkyXs0xZJJn667R8bs-2" value="&lt;font style=&quot;font-size: 15px;&quot;&gt;IUserModel-&lt;/font&gt;&lt;div&gt;&lt;font style=&quot;font-size: 15px;&quot;&gt;TemplateBond&lt;/font&gt;&lt;/div&gt;" style="rounded=1;whiteSpace=wrap;html=1;" vertex="1" parent="1">
          <mxGeometry x="227" y="90" width="140" height="50" as="geometry" />
        </mxCell>
        <mxCell id="k7mkyXs0xZJJn667R8bs-3" style="rounded=0;orthogonalLoop=1;jettySize=auto;html=1;exitX=0.25;exitY=0;exitDx=0;exitDy=0;entryX=0.5;entryY=1;entryDx=0;entryDy=0;" edge="1" parent="1" source="k7mkyXs0xZJJn667R8bs-4" target="k7mkyXs0xZJJn667R8bs-1">
          <mxGeometry relative="1" as="geometry" />
        </mxCell>
        <mxCell id="k7mkyXs0xZJJn667R8bs-4" value="&lt;font style=&quot;font-size: 15px;&quot;&gt;IUserModelRepresentative&lt;/font&gt;" style="rounded=1;whiteSpace=wrap;html=1;" vertex="1" parent="1">
          <mxGeometry x="100" y="170" width="200" height="50" as="geometry" />
        </mxCell>
        <mxCell id="k7mkyXs0xZJJn667R8bs-5" style="rounded=0;orthogonalLoop=1;jettySize=auto;html=1;exitX=0;exitY=0;exitDx=0;exitDy=0;entryX=0.5;entryY=1;entryDx=0;entryDy=0;" edge="1" parent="1" source="k7mkyXs0xZJJn667R8bs-11" target="k7mkyXs0xZJJn667R8bs-4">
          <mxGeometry relative="1" as="geometry" />
        </mxCell>
        <mxCell id="k7mkyXs0xZJJn667R8bs-6" style="rounded=0;orthogonalLoop=1;jettySize=auto;html=1;exitX=0.25;exitY=0;exitDx=0;exitDy=0;entryX=0.5;entryY=1;entryDx=0;entryDy=0;" edge="1" parent="1" source="k7mkyXs0xZJJn667R8bs-11" target="k7mkyXs0xZJJn667R8bs-4">
          <mxGeometry relative="1" as="geometry">
            <mxPoint x="210" y="230" as="targetPoint" />
          </mxGeometry>
        </mxCell>
        <mxCell id="k7mkyXs0xZJJn667R8bs-7" style="rounded=0;orthogonalLoop=1;jettySize=auto;html=1;exitX=0.5;exitY=0;exitDx=0;exitDy=0;entryX=0.5;entryY=1;entryDx=0;entryDy=0;" edge="1" parent="1" source="k7mkyXs0xZJJn667R8bs-11" target="k7mkyXs0xZJJn667R8bs-4">
          <mxGeometry relative="1" as="geometry" />
        </mxCell>
        <mxCell id="k7mkyXs0xZJJn667R8bs-8" style="rounded=0;orthogonalLoop=1;jettySize=auto;html=1;exitX=0.75;exitY=0;exitDx=0;exitDy=0;entryX=0.5;entryY=1;entryDx=0;entryDy=0;" edge="1" parent="1" source="k7mkyXs0xZJJn667R8bs-11" target="k7mkyXs0xZJJn667R8bs-4">
          <mxGeometry relative="1" as="geometry" />
        </mxCell>
        <mxCell id="k7mkyXs0xZJJn667R8bs-9" style="rounded=0;orthogonalLoop=1;jettySize=auto;html=1;exitX=1;exitY=0;exitDx=0;exitDy=0;entryX=0.5;entryY=1;entryDx=0;entryDy=0;" edge="1" parent="1" source="k7mkyXs0xZJJn667R8bs-11" target="k7mkyXs0xZJJn667R8bs-4">
          <mxGeometry relative="1" as="geometry" />
        </mxCell>
        <mxCell id="k7mkyXs0xZJJn667R8bs-10" style="rounded=0;orthogonalLoop=1;jettySize=auto;html=1;exitX=1;exitY=0;exitDx=0;exitDy=0;entryX=0;entryY=0;entryDx=0;entryDy=0;dashed=1;" edge="1" parent="1" source="k7mkyXs0xZJJn667R8bs-11" target="k7mkyXs0xZJJn667R8bs-25">
          <mxGeometry relative="1" as="geometry" />
        </mxCell>
        <mxCell id="k7mkyXs0xZJJn667R8bs-11" value="&lt;i&gt;&lt;font style=&quot;font-size: 15px;&quot;&gt;Triedy implementujúce&amp;nbsp;&lt;/font&gt;&lt;/i&gt;&lt;div&gt;&lt;span style=&quot;font-size: 15px;&quot;&gt;&lt;i&gt;reprezentantov užívateľských modelov&lt;/i&gt;&lt;/span&gt;&lt;/div&gt;" style="rounded=0;whiteSpace=wrap;html=1;" vertex="1" parent="1">
          <mxGeometry x="75" y="430" width="250" height="100" as="geometry" />
        </mxCell>
        <mxCell id="k7mkyXs0xZJJn667R8bs-12" value="&lt;font style=&quot;font-size: 15px;&quot;&gt;IUserModel&lt;/font&gt;" style="rounded=1;whiteSpace=wrap;html=1;" vertex="1" parent="1">
          <mxGeometry x="509" y="40" width="140" height="50" as="geometry" />
        </mxCell>
        <mxCell id="k7mkyXs0xZJJn667R8bs-13" style="rounded=0;orthogonalLoop=1;jettySize=auto;html=1;exitX=0.25;exitY=0;exitDx=0;exitDy=0;entryX=0.5;entryY=1;entryDx=0;entryDy=0;" edge="1" parent="1" source="k7mkyXs0xZJJn667R8bs-16" target="k7mkyXs0xZJJn667R8bs-35">
          <mxGeometry relative="1" as="geometry" />
        </mxCell>
        <mxCell id="k7mkyXs0xZJJn667R8bs-14" style="rounded=0;orthogonalLoop=1;jettySize=auto;html=1;exitX=0.75;exitY=0;exitDx=0;exitDy=0;entryX=0.5;entryY=1;entryDx=0;entryDy=0;" edge="1" parent="1" source="k7mkyXs0xZJJn667R8bs-16" target="k7mkyXs0xZJJn667R8bs-35">
          <mxGeometry relative="1" as="geometry">
            <mxPoint x="618" y="110" as="targetPoint" />
          </mxGeometry>
        </mxCell>
        <mxCell id="k7mkyXs0xZJJn667R8bs-15" style="rounded=0;orthogonalLoop=1;jettySize=auto;html=1;exitX=0.5;exitY=0;exitDx=0;exitDy=0;entryX=0.5;entryY=1;entryDx=0;entryDy=0;" edge="1" parent="1" source="k7mkyXs0xZJJn667R8bs-16" target="k7mkyXs0xZJJn667R8bs-35">
          <mxGeometry relative="1" as="geometry" />
        </mxCell>
        <mxCell id="k7mkyXs0xZJJn667R8bs-16" value="&lt;span style=&quot;font-size: 15px;&quot;&gt;&lt;i&gt;Rozhrania definujúce výpočtovú funkcionalitu užívateľských modelov&lt;/i&gt;&lt;/span&gt;" style="rounded=1;whiteSpace=wrap;html=1;" vertex="1" parent="1">
          <mxGeometry x="571" y="250" width="230" height="100" as="geometry" />
        </mxCell>
        <mxCell id="k7mkyXs0xZJJn667R8bs-18" style="rounded=0;orthogonalLoop=1;jettySize=auto;html=1;exitX=0.25;exitY=0;exitDx=0;exitDy=0;entryX=0.75;entryY=1;entryDx=0;entryDy=0;" edge="1" parent="1" source="k7mkyXs0xZJJn667R8bs-25" target="k7mkyXs0xZJJn667R8bs-16">
          <mxGeometry relative="1" as="geometry" />
        </mxCell>
        <mxCell id="k7mkyXs0xZJJn667R8bs-19" style="rounded=0;orthogonalLoop=1;jettySize=auto;html=1;exitX=0.75;exitY=0;exitDx=0;exitDy=0;entryX=0.5;entryY=1;entryDx=0;entryDy=0;" edge="1" parent="1" source="k7mkyXs0xZJJn667R8bs-25" target="k7mkyXs0xZJJn667R8bs-16">
          <mxGeometry relative="1" as="geometry" />
        </mxCell>
        <mxCell id="k7mkyXs0xZJJn667R8bs-20" style="rounded=0;orthogonalLoop=1;jettySize=auto;html=1;exitX=1;exitY=0;exitDx=0;exitDy=0;entryX=0.25;entryY=1;entryDx=0;entryDy=0;" edge="1" parent="1" source="k7mkyXs0xZJJn667R8bs-25" target="k7mkyXs0xZJJn667R8bs-16">
          <mxGeometry relative="1" as="geometry" />
        </mxCell>
        <mxCell id="k7mkyXs0xZJJn667R8bs-21" style="rounded=0;orthogonalLoop=1;jettySize=auto;html=1;exitX=0;exitY=0;exitDx=0;exitDy=0;entryX=0.25;entryY=1;entryDx=0;entryDy=0;" edge="1" parent="1" source="k7mkyXs0xZJJn667R8bs-25" target="k7mkyXs0xZJJn667R8bs-16">
          <mxGeometry relative="1" as="geometry" />
        </mxCell>
        <mxCell id="k7mkyXs0xZJJn667R8bs-22" style="rounded=0;orthogonalLoop=1;jettySize=auto;html=1;exitX=0.5;exitY=0;exitDx=0;exitDy=0;entryX=0.25;entryY=1;entryDx=0;entryDy=0;" edge="1" parent="1" source="k7mkyXs0xZJJn667R8bs-25" target="k7mkyXs0xZJJn667R8bs-16">
          <mxGeometry relative="1" as="geometry" />
        </mxCell>
        <mxCell id="k7mkyXs0xZJJn667R8bs-23" style="rounded=0;orthogonalLoop=1;jettySize=auto;html=1;exitX=0.75;exitY=0;exitDx=0;exitDy=0;entryX=0.75;entryY=1;entryDx=0;entryDy=0;" edge="1" parent="1" source="k7mkyXs0xZJJn667R8bs-25" target="k7mkyXs0xZJJn667R8bs-16">
          <mxGeometry relative="1" as="geometry" />
        </mxCell>
        <mxCell id="k7mkyXs0xZJJn667R8bs-39" style="rounded=0;orthogonalLoop=1;jettySize=auto;html=1;exitX=0.25;exitY=0;exitDx=0;exitDy=0;entryX=0.5;entryY=1;entryDx=0;entryDy=0;" edge="1" parent="1" source="k7mkyXs0xZJJn667R8bs-25" target="k7mkyXs0xZJJn667R8bs-37">
          <mxGeometry relative="1" as="geometry" />
        </mxCell>
        <mxCell id="k7mkyXs0xZJJn667R8bs-40" style="rounded=0;orthogonalLoop=1;jettySize=auto;html=1;exitX=0.75;exitY=0;exitDx=0;exitDy=0;entryX=0.5;entryY=1;entryDx=0;entryDy=0;" edge="1" parent="1" source="k7mkyXs0xZJJn667R8bs-25" target="k7mkyXs0xZJJn667R8bs-37">
          <mxGeometry relative="1" as="geometry">
            <mxPoint x="570" y="250" as="targetPoint" />
          </mxGeometry>
        </mxCell>
        <mxCell id="k7mkyXs0xZJJn667R8bs-41" style="rounded=0;orthogonalLoop=1;jettySize=auto;html=1;exitX=0.5;exitY=0;exitDx=0;exitDy=0;entryX=0.5;entryY=1;entryDx=0;entryDy=0;" edge="1" parent="1" source="k7mkyXs0xZJJn667R8bs-25" target="k7mkyXs0xZJJn667R8bs-37">
          <mxGeometry relative="1" as="geometry" />
        </mxCell>
        <mxCell id="k7mkyXs0xZJJn667R8bs-42" style="rounded=0;orthogonalLoop=1;jettySize=auto;html=1;exitX=0.5;exitY=0;exitDx=0;exitDy=0;entryX=0.5;entryY=1;entryDx=0;entryDy=0;" edge="1" parent="1" source="k7mkyXs0xZJJn667R8bs-25" target="k7mkyXs0xZJJn667R8bs-12">
          <mxGeometry relative="1" as="geometry" />
        </mxCell>
        <mxCell id="k7mkyXs0xZJJn667R8bs-43" style="rounded=0;orthogonalLoop=1;jettySize=auto;html=1;exitX=0;exitY=0;exitDx=0;exitDy=0;entryX=0.5;entryY=1;entryDx=0;entryDy=0;" edge="1" parent="1" source="k7mkyXs0xZJJn667R8bs-25" target="k7mkyXs0xZJJn667R8bs-37">
          <mxGeometry relative="1" as="geometry" />
        </mxCell>
        <mxCell id="k7mkyXs0xZJJn667R8bs-44" style="rounded=0;orthogonalLoop=1;jettySize=auto;html=1;exitX=1;exitY=0;exitDx=0;exitDy=0;entryX=0.5;entryY=1;entryDx=0;entryDy=0;" edge="1" parent="1" source="k7mkyXs0xZJJn667R8bs-25" target="k7mkyXs0xZJJn667R8bs-16">
          <mxGeometry relative="1" as="geometry" />
        </mxCell>
        <mxCell id="k7mkyXs0xZJJn667R8bs-25" value="&lt;span style=&quot;font-size: 15px;&quot;&gt;&lt;i&gt;Triedy implementujúce&amp;nbsp;&lt;/i&gt;&lt;/span&gt;&lt;div&gt;&lt;span style=&quot;font-size: 15px;&quot;&gt;&lt;i&gt;užívateľské modely&lt;/i&gt;&lt;/span&gt;&lt;/div&gt;" style="rounded=0;whiteSpace=wrap;html=1;" vertex="1" parent="1">
          <mxGeometry x="425" y="430" width="250" height="100" as="geometry" />
        </mxCell>
        <mxCell id="k7mkyXs0xZJJn667R8bs-26" style="rounded=0;orthogonalLoop=1;jettySize=auto;html=1;exitX=0.75;exitY=0;exitDx=0;exitDy=0;entryX=0.5;entryY=1;entryDx=0;entryDy=0;" edge="1" parent="1" source="k7mkyXs0xZJJn667R8bs-4" target="k7mkyXs0xZJJn667R8bs-2">
          <mxGeometry relative="1" as="geometry">
            <mxPoint x="170" y="190" as="sourcePoint" />
            <mxPoint x="120" y="150" as="targetPoint" />
          </mxGeometry>
        </mxCell>
        <mxCell id="k7mkyXs0xZJJn667R8bs-27" style="rounded=0;orthogonalLoop=1;jettySize=auto;html=1;exitX=1;exitY=0.25;exitDx=0;exitDy=0;entryX=0;entryY=0.25;entryDx=0;entryDy=0;dashed=1;" edge="1" parent="1" source="k7mkyXs0xZJJn667R8bs-11" target="k7mkyXs0xZJJn667R8bs-25">
          <mxGeometry relative="1" as="geometry">
            <mxPoint x="398" y="470" as="sourcePoint" />
            <mxPoint x="508" y="470" as="targetPoint" />
          </mxGeometry>
        </mxCell>
        <mxCell id="k7mkyXs0xZJJn667R8bs-28" style="rounded=0;orthogonalLoop=1;jettySize=auto;html=1;exitX=1;exitY=0.5;exitDx=0;exitDy=0;entryX=0;entryY=0.5;entryDx=0;entryDy=0;dashed=1;" edge="1" parent="1" source="k7mkyXs0xZJJn667R8bs-11" target="k7mkyXs0xZJJn667R8bs-25">
          <mxGeometry relative="1" as="geometry">
            <mxPoint x="398" y="489.44000000000005" as="sourcePoint" />
            <mxPoint x="508" y="489.44000000000005" as="targetPoint" />
          </mxGeometry>
        </mxCell>
        <mxCell id="k7mkyXs0xZJJn667R8bs-29" style="rounded=0;orthogonalLoop=1;jettySize=auto;html=1;exitX=1;exitY=0.75;exitDx=0;exitDy=0;entryX=0;entryY=0.75;entryDx=0;entryDy=0;dashed=1;" edge="1" parent="1" source="k7mkyXs0xZJJn667R8bs-11" target="k7mkyXs0xZJJn667R8bs-25">
          <mxGeometry relative="1" as="geometry">
            <mxPoint x="383" y="510" as="sourcePoint" />
            <mxPoint x="493" y="510" as="targetPoint" />
          </mxGeometry>
        </mxCell>
        <mxCell id="k7mkyXs0xZJJn667R8bs-30" style="rounded=0;orthogonalLoop=1;jettySize=auto;html=1;exitX=1;exitY=1;exitDx=0;exitDy=0;entryX=0;entryY=1;entryDx=0;entryDy=0;dashed=1;" edge="1" parent="1" source="k7mkyXs0xZJJn667R8bs-11" target="k7mkyXs0xZJJn667R8bs-25">
          <mxGeometry relative="1" as="geometry">
            <mxPoint x="383" y="540" as="sourcePoint" />
            <mxPoint x="493" y="540" as="targetPoint" />
          </mxGeometry>
        </mxCell>
        <mxCell id="k7mkyXs0xZJJn667R8bs-31" style="rounded=0;orthogonalLoop=1;jettySize=auto;html=1;exitX=1;exitY=0;exitDx=0;exitDy=0;dashed=1;" edge="1" parent="1">
          <mxGeometry relative="1" as="geometry">
            <mxPoint x="320" y="50" as="sourcePoint" />
            <mxPoint x="480" y="50" as="targetPoint" />
          </mxGeometry>
        </mxCell>
        <mxCell id="k7mkyXs0xZJJn667R8bs-32" value="&lt;font style=&quot;font-size: 13px;&quot;&gt;Reprezentuje&lt;/font&gt;" style="edgeLabel;html=1;align=center;verticalAlign=middle;resizable=0;points=[];" vertex="1" connectable="0" parent="k7mkyXs0xZJJn667R8bs-31">
          <mxGeometry x="-0.1209" y="1" relative="1" as="geometry">
            <mxPoint x="10" y="-19" as="offset" />
          </mxGeometry>
        </mxCell>
        <mxCell id="k7mkyXs0xZJJn667R8bs-33" style="rounded=0;orthogonalLoop=1;jettySize=auto;html=1;" edge="1" parent="1">
          <mxGeometry relative="1" as="geometry">
            <mxPoint x="120" y="50" as="sourcePoint" />
            <mxPoint x="280" y="50" as="targetPoint" />
          </mxGeometry>
        </mxCell>
        <mxCell id="k7mkyXs0xZJJn667R8bs-34" value="&lt;font style=&quot;font-size: 13px;&quot;&gt;Dedí / Implementuje&lt;/font&gt;" style="edgeLabel;html=1;align=center;verticalAlign=middle;resizable=0;points=[];" vertex="1" connectable="0" parent="k7mkyXs0xZJJn667R8bs-33">
          <mxGeometry x="-0.3827" y="2" relative="1" as="geometry">
            <mxPoint x="28" y="-18" as="offset" />
          </mxGeometry>
        </mxCell>
        <mxCell id="k7mkyXs0xZJJn667R8bs-36" style="rounded=0;orthogonalLoop=1;jettySize=auto;html=1;exitX=0.5;exitY=0;exitDx=0;exitDy=0;entryX=0.75;entryY=1;entryDx=0;entryDy=0;" edge="1" parent="1" source="k7mkyXs0xZJJn667R8bs-35" target="k7mkyXs0xZJJn667R8bs-12">
          <mxGeometry relative="1" as="geometry" />
        </mxCell>
        <mxCell id="k7mkyXs0xZJJn667R8bs-35" value="&lt;font style=&quot;font-size: 15px;&quot;&gt;IComputingUserModel&lt;/font&gt;" style="rounded=1;whiteSpace=wrap;html=1;" vertex="1" parent="1">
          <mxGeometry x="600" y="140" width="172" height="50" as="geometry" />
        </mxCell>
        <mxCell id="k7mkyXs0xZJJn667R8bs-38" style="rounded=0;orthogonalLoop=1;jettySize=auto;html=1;exitX=0.5;exitY=0;exitDx=0;exitDy=0;entryX=0.25;entryY=1;entryDx=0;entryDy=0;" edge="1" parent="1" source="k7mkyXs0xZJJn667R8bs-37" target="k7mkyXs0xZJJn667R8bs-12">
          <mxGeometry relative="1" as="geometry" />
        </mxCell>
        <mxCell id="k7mkyXs0xZJJn667R8bs-37" value="&lt;font style=&quot;font-size: 15px;&quot;&gt;ISettableUserModel&lt;/font&gt;" style="rounded=1;whiteSpace=wrap;html=1;" vertex="1" parent="1">
          <mxGeometry x="380" y="140" width="172" height="50" as="geometry" />
        </mxCell>
      </root>
    </mxGraphModel>
  </diagram>
</mxfile>
